<?xml version="1.0" encoding="utf-8"?>
<svg version="1.1" xmlns:xlink="http://www.w3.org/1999/xlink" width="18px" height="21px" xmlns="http://www.w3.org/2000/svg">
  <g transform="matrix(1 0 0 1 -411 -466 )">
    <path d="M 12.181640625 9.474609375  C 13.060546875 8.791015625  13.5 7.96614583333333  13.5 7  C 13.5 6.03385416666667  13.060546875 5.208984375  12.181640625 4.525390625  C 11.302734375 3.841796875  10.2421875 3.5  9 3.5  C 7.7578125 3.5  6.697265625 3.841796875  5.818359375 4.525390625  C 4.939453125 5.208984375  4.5 6.03385416666667  4.5 7  C 4.5 7.96614583333333  4.939453125 8.791015625  5.818359375 9.474609375  C 6.697265625 10.158203125  7.7578125 10.5  9 10.5  C 10.2421875 10.5  11.302734375 10.158203125  12.181640625 9.474609375  Z M 15.36328125 2.05078125  C 17.12109375 3.41796875  18 5.06770833333333  18 7  C 18 7.99348958333333  17.806640625 8.80924479166667  17.419921875 9.447265625  L 11.021484375 20.029296875  C 10.833984375 20.330078125  10.5556640625 20.5670572916667  10.1865234375 20.740234375  C 9.8173828125 20.9134114583333  9.421875 21  9 21  C 8.578125 21  8.1826171875 20.9134114583333  7.8134765625 20.740234375  C 7.4443359375 20.5670572916667  7.171875 20.330078125  6.99609375 20.029296875  L 0.580078125 9.447265625  C 0.193359375 8.80924479166667  0 7.99348958333333  0 7  C 0 5.06770833333333  0.87890625 3.41796875  2.63671875 2.05078125  C 4.39453125 0.683593750000001  6.515625 0  9 0  C 11.484375 0  13.60546875 0.683593750000001  15.36328125 2.05078125  Z " fill-rule="nonzero" fill="#cccccc" stroke="none" transform="matrix(1 0 0 1 411 466 )" />
  </g>
</svg>