<?xml version="1.0" encoding="utf-8"?>
<svg version="1.1" xmlns:xlink="http://www.w3.org/1999/xlink" width="20px" height="20px" xmlns="http://www.w3.org/2000/svg">
  <g transform="matrix(1 0 0 1 -477 -467 )">
    <path d="M 10.0260416666667 11.4285714285714  C 11.9704861111111 11.4285714285714  12.9427083333333 12.0535714285714  12.9427083333333 13.3035714285714  C 12.9427083333333 13.9434523809524  12.8689236111111 14.6763392857143  12.7213541666667 15.5022321428571  C 12.4522569444444 17.1019345238095  12.2135416666667 18.266369047619  12.0052083333333 18.9955357142857  C 11.8142361111111 19.6651785714286  11.1545138888889 20  10.0260416666667 20  C 8.89756944444444 20  8.23784722222222 19.6651785714286  8.046875 18.9955357142857  C 7.83854166666667 18.266369047619  7.59982638888889 17.1019345238095  7.33072916666667 15.5022321428571  C 7.18315972222222 14.6837797619048  7.109375 13.9508928571429  7.109375 13.3035714285714  C 7.109375 12.0535714285714  8.08159722222222 11.4285714285714  10.0260416666667 11.4285714285714  Z M 19.1471354166667 5.12834821428571  C 19.7157118055556 6.21837797619047  20 7.36607142857143  20 8.57142857142857  C 20 10.3571428571429  19.4184027777778 11.9717261904762  18.2552083333333 13.4151785714286  C 17.0920138888889 14.858630952381  15.5729166666667 15.9002976190476  13.6979166666667 16.5401785714286  C 13.6284722222222 16.5625  13.5633680555556 16.5513392857143  13.5026041666667 16.5066964285714  C 13.4418402777778 16.4620535714286  13.4157986111111 16.40625  13.4244791666667 16.3392857142857  C 13.4852430555556 15.9821428571429  13.5286458333333 15.7366071428571  13.5546875 15.6026785714286  C 13.5894097222222 15.3645833333333  13.6154513888889 15.1897321428571  13.6328125 15.078125  C 13.6414930555556 15.0111607142857  13.6805555555556 14.9665178571429  13.75 14.9441964285714  C 15.1302083333333 14.3415178571429  16.2391493055556 13.4709821428571  17.0768229166667 12.3325892857143  C 17.9144965277778 11.1941964285714  18.3333333333333 9.94047619047619  18.3333333333333 8.57142857142857  C 18.3333333333333 7.23214285714286  17.9383680555556 6.00260416666667  17.1484375 4.8828125  C 16.3585069444444 3.76302083333333  15.2864583333333 2.890625  13.9322916666667 2.265625  C 12.578125 1.640625  11.1154513888889 1.36532738095238  9.54427083333333 1.43973214285714  C 8.46788194444444 1.49181547619047  7.43923611111111 1.71875  6.45833333333333 2.12053571428571  C 5.47743055555556 2.52232142857143  4.63758680555556 3.04501488095238  3.93880208333333 3.68861607142857  C 3.24001736111111 4.33221726190476  2.68446180555556 5.08370535714286  2.27213541666667 5.94308035714286  C 1.85980902777778 6.80245535714286  1.65798611111111 7.69717261904762  1.66666666666667 8.62723214285714  C 1.67534722222222 9.99627976190476  2.10503472222222 11.2481398809524  2.95572916666667 12.3828125  C 3.80642361111111 13.5174851190476  4.921875 14.3787202380952  6.30208333333333 14.9665178571429  C 6.36284722222222 14.9888392857143  6.40190972222222 15.0334821428571  6.41927083333333 15.1004464285714  C 6.4453125 15.2566964285714  6.47135416666667 15.4241071428571  6.49739583333333 15.6026785714286  C 6.50607638888889 15.6696428571429  6.52777777777778 15.7905505952381  6.5625 15.9654017857143  C 6.59722222222222 16.1402529761905  6.62326388888889 16.2723214285714  6.640625 16.3616071428571  C 6.64930555555556 16.4285714285714  6.62109375 16.484375  6.55598958333333 16.5290178571429  C 6.49088541666667 16.5736607142857  6.42361111111111 16.5811011904762  6.35416666666667 16.5513392857143  C 5.06944444444445 16.1197916666667  3.93663194444444 15.4892113095238  2.95572916666667 14.6595982142857  C 1.97482638888889 13.8299851190476  1.22178819444444 12.8478422619048  0.696614583333333 11.7131696428571  C 0.171440972222222 10.5784970238095  -0.0564236111111111 9.38988095238095  0.0130208333333333 8.14732142857143  C 0.0737847222222222 7.08333333333333  0.360243055555556 6.06584821428571  0.872395833333333 5.09486607142857  C 1.38454861111111 4.12388392857143  2.05512152777778 3.27938988095238  2.88411458333333 2.56138392857143  C 3.71310763888889 1.84337797619047  4.68967013888889 1.25744047619047  5.81380208333333 0.803571428571428  C 6.93793402777778 0.349702380952379  8.12065972222222 0.089285714285714  9.36197916666667 0.0223214285714279  C 10.7855902777778 -0.0520833333333348  12.1549479166667 0.120907738095237  13.4700520833333 0.541294642857142  C 14.78515625 0.961681547619047  15.91796875 1.55877976190476  16.8684895833333 2.33258928571429  C 17.8190104166667 3.10639880952381  18.5785590277778 4.03831845238095  19.1471354166667 5.12834821428571  Z M 12.08984375 6.4453125  C 12.6584201388889 6.93266369047619  12.9427083333333 7.52232142857143  12.9427083333333 8.21428571428571  C 12.9427083333333 8.90625  12.6584201388889 9.49590773809524  12.08984375 9.98325892857143  C 11.5212673611111 10.4706101190476  10.8333333333333 10.7142857142857  10.0260416666667 10.7142857142857  C 9.21875 10.7142857142857  8.53081597222222 10.4706101190476  7.96223958333333 9.98325892857143  C 7.39366319444445 9.49590773809524  7.109375 8.90625  7.109375 8.21428571428571  C 7.109375 7.52232142857143  7.39366319444445 6.93266369047619  7.96223958333333 6.4453125  C 8.53081597222222 5.95796130952381  9.21875 5.71428571428571  10.0260416666667 5.71428571428571  C 10.8333333333333 5.71428571428571  11.5212673611111 5.95796130952381  12.08984375 6.4453125  Z M 15.7486979166667 5.63058035714286  C 16.3780381944444 6.52715773809524  16.6927083333333 7.50744047619047  16.6927083333333 8.57142857142857  C 16.6927083333333 9.47916666666666  16.4605034722222 10.3292410714286  15.99609375 11.1216517857143  C 15.5316840277778 11.9140625  14.8958333333333 12.5744047619048  14.0885416666667 13.1026785714286  C 14.0190972222222 13.1473214285714  13.9496527777778 13.1547619047619  13.8802083333333 13.125  C 13.8107638888889 13.0952380952381  13.7673611111111 13.0431547619048  13.75 12.96875  C 13.6979166666667 12.5818452380952  13.5720486111111 12.2395833333333  13.3723958333333 11.9419642857143  C 13.3116319444444 11.8675595238095  13.3246527777778 11.7931547619048  13.4114583333333 11.71875  C 13.9149305555556 11.3169642857143  14.3098958333333 10.844494047619  14.5963541666667 10.3013392857143  C 14.8828125 9.75818452380952  15.0260416666667 9.18154761904762  15.0260416666667 8.57142857142857  C 15.0260416666667 7.74553571428571  14.7721354166667 6.98660714285714  14.2643229166667 6.29464285714286  C 13.7565104166667 5.60267857142857  13.0729166666667 5.07626488095238  12.2135416666667 4.71540178571429  C 11.3541666666667 4.35453869047619  10.4340277777778 4.21875  9.453125 4.30803571428571  C 8.29861111111111 4.41964285714286  7.3046875 4.84002976190476  6.47135416666667 5.56919642857143  C 5.63802083333333 6.29836309523809  5.16493055555556 7.15773809523809  5.05208333333333 8.14732142857143  C 4.96527777777778 8.83184523809524  5.06727430555556 9.48660714285714  5.35807291666667 10.1116071428571  C 5.64887152777778 10.7366071428571  6.07638888888889 11.2723214285714  6.640625 11.71875  C 6.72743055555556 11.7931547619048  6.74045138888889 11.8675595238095  6.6796875 11.9419642857143  C 6.47135416666667 12.2470238095238  6.34548611111111 12.593005952381  6.30208333333333 12.9799107142857  C 6.28472222222222 13.046875  6.24131944444445 13.0952380952381  6.171875 13.125  C 6.10243055555556 13.1547619047619  6.03298611111111 13.1473214285714  5.96354166666667 13.1026785714286  C 5.13888888888889 12.5520833333333  4.49435763888889 11.8712797619048  4.02994791666667 11.0602678571429  C 3.56553819444444 10.249255952381  3.34201388888889 9.37872023809524  3.359375 8.44866071428571  C 3.38541666666667 7.47395833333333  3.68489583333333 6.56622023809524  4.2578125 5.72544642857143  C 4.83072916666667 4.88467261904762  5.59895833333333 4.2094494047619  6.5625 3.69977678571429  C 7.52604166666667 3.19010416666667  8.57204861111111 2.91294642857143  9.70052083333333 2.86830357142857  C 10.9505208333333 2.81622023809524  12.1137152777778 3.03943452380952  13.1901041666667 3.53794642857143  C 14.2664930555556 4.03645833333333  15.1193576388889 4.73400297619047  15.7486979166667 5.63058035714286  Z " fill-rule="nonzero" fill="#cccccc" stroke="none" transform="matrix(1 0 0 1 477 467 )" />
  </g>
</svg>