<?xml version="1.0" encoding="utf-8"?>
<svg version="1.1" xmlns:xlink="http://www.w3.org/1999/xlink" width="18px" height="27px" xmlns="http://www.w3.org/2000/svg">
  <g transform="matrix(1 0 0 1 -501 -213 )">
    <path d="M 17.703125 10.6929086538462  C 17.9010416666667 10.8984375  18 11.1418269230769  18 11.4230769230769  L 18 13.5  C 18 15.890625  17.2317708333333 17.9702524038462  15.6953125 19.7388822115385  C 14.1588541666667 21.5075120192308  12.2604166666667 22.5216346153846  10 22.78125  L 10 24.9230769230769  L 14 24.9230769230769  C 14.2708333333333 24.9230769230769  14.5052083333333 25.0258413461538  14.703125 25.2313701923077  C 14.9010416666667 25.4368990384615  15 25.6802884615385  15 25.9615384615385  C 15 26.2427884615385  14.9010416666667 26.4861778846154  14.703125 26.6917067307692  C 14.5052083333333 26.8972355769231  14.2708333333333 27  14 27  L 4 27  C 3.72916666666667 27  3.49479166666667 26.8972355769231  3.296875 26.6917067307692  C 3.09895833333333 26.4861778846154  3 26.2427884615385  3 25.9615384615385  C 3 25.6802884615385  3.09895833333333 25.4368990384615  3.296875 25.2313701923077  C 3.49479166666667 25.0258413461538  3.72916666666667 24.9230769230769  4 24.9230769230769  L 8 24.9230769230769  L 8 22.78125  C 5.73958333333333 22.5216346153846  3.84114583333333 21.5075120192308  2.3046875 19.7388822115385  C 0.768229166666667 17.9702524038462  0 15.890625  0 13.5  L 0 11.4230769230769  C 0 11.1418269230769  0.0989583333333333 10.8984375  0.296875 10.6929086538462  C 0.494791666666667 10.4873798076923  0.729166666666667 10.3846153846154  1 10.3846153846154  C 1.27083333333333 10.3846153846154  1.50520833333333 10.4873798076923  1.703125 10.6929086538462  C 1.90104166666667 10.8984375  2 11.1418269230769  2 11.4230769230769  L 2 13.5  C 2 15.5012019230769  2.68489583333333 17.2130408653846  4.0546875 18.6355168269231  C 5.42447916666667 20.0579927884615  7.07291666666667 20.7692307692308  9 20.7692307692308  C 10.9270833333333 20.7692307692308  12.5755208333333 20.0579927884615  13.9453125 18.6355168269231  C 15.3151041666667 17.2130408653846  16 15.5012019230769  16 13.5  L 16 11.4230769230769  C 16 11.1418269230769  16.0989583333333 10.8984375  16.296875 10.6929086538462  C 16.4947916666667 10.4873798076923  16.7291666666667 10.3846153846154  17 10.3846153846154  C 17.2708333333333 10.3846153846154  17.5052083333333 10.4873798076923  17.703125 10.6929086538462  Z M 12.53125 1.52524038461538  C 13.5104166666667 2.54206730769231  14 3.76442307692308  14 5.19230769230769  L 14 13.5  C 14 14.9278846153846  13.5104166666667 16.1502403846154  12.53125 17.1670673076923  C 11.5520833333333 18.1838942307692  10.375 18.6923076923077  9 18.6923076923077  C 7.625 18.6923076923077  6.44791666666667 18.1838942307692  5.46875 17.1670673076923  C 4.48958333333333 16.1502403846154  4 14.9278846153846  4 13.5  L 4 5.19230769230769  C 4 3.76442307692308  4.48958333333333 2.54206730769231  5.46875 1.52524038461538  C 6.44791666666667 0.508413461538464  7.625 0  9 0  C 10.375 0  11.5520833333333 0.508413461538464  12.53125 1.52524038461538  Z " fill-rule="nonzero" fill="#333640" stroke="none" transform="matrix(1 0 0 1 501 213 )" />
  </g>
</svg>