<?xml version="1.0" encoding="utf-8"?>
<svg version="1.1" xmlns:xlink="http://www.w3.org/1999/xlink" width="24px" height="25px" xmlns="http://www.w3.org/2000/svg">
  <g transform="matrix(1 0 0 1 -498 -166 )">
    <path d="M 22.96875 0.0836120401337792  C 23.21875 -0.0371609067261247  23.453125 -0.00929022668152979  23.671875 0.167224080267558  C 23.890625 0.353028613898179  24 0.599219620958752  24 0.905797101449277  L 24 20.5267558528428  C 24 20.7125603864734  23.95703125 20.879784466741  23.87109375 21.0284280936455  C 23.78515625 21.17707172055  23.671875 21.2839093273876  23.53125 21.3489409141583  L 16.03125 24.9163879598662  C 15.84375 25.0185804533631  15.65625 25.0185804533631  15.46875 24.9163879598662  L 8.25 21.4882943143813  L 1.03125 24.9163879598662  C 0.953125 24.9628390932739  0.859375 24.9860646599777  0.75 24.9860646599777  C 0.6015625 24.9860646599777  0.4609375 24.9349684132293  0.328125 24.8327759197324  C 0.109375 24.6469713861018  0 24.4007803790412  0 24.0942028985507  L 0 4.47324414715719  C 0 4.28743961352657  0.04296875 4.12021553325901  0.12890625 3.97157190635452  C 0.21484375 3.82292827945002  0.328125 3.71609067261241  0.46875 3.6510590858417  L 7.96875 0.0836120401337792  C 8.15625 -0.0185804533630651  8.34375 -0.0185804533630651  8.53125 0.0836120401337792  L 15.75 3.51170568561873  L 22.96875 0.0836120401337792  Z M 15 5.2536231884058  L 9 2.04849498327759  L 9 19.7463768115942  L 15 22.9515050167224  L 15 5.2536231884058  Z M 8 2.04849498327759  L 1.5 5.07246376811594  L 1.5 22.7703455964326  L 8 19.7463768115942  L 8 2.04849498327759  Z M 16 22.9515050167224  L 22.5 19.9275362318841  L 22.5 2.22965440356745  L 16 5.2536231884058  L 16 22.9515050167224  Z " fill-rule="nonzero" fill="#000000" stroke="none" transform="matrix(1 0 0 1 498 166 )" />
  </g>
</svg>