<?xml version="1.0" encoding="utf-8"?>
<svg version="1.1" xmlns:xlink="http://www.w3.org/1999/xlink" width="35px" height="44px" xmlns="http://www.w3.org/2000/svg">
  <defs>
    <filter x="400px" y="175px" width="35px" height="44px" filterUnits="userSpaceOnUse" id="filter3">
      <feOffset dx="1" dy="1" in="SourceAlpha" result="shadowOffsetInner" />
      <feGaussianBlur stdDeviation="2.5" in="shadowOffsetInner" result="shadowGaussian" />
      <feComposite in2="shadowGaussian" operator="atop" in="SourceAlpha" result="shadowComposite" />
      <feColorMatrix type="matrix" values="0 0 0 0 0  0 0 0 0 0  0 0 0 0 0  0 0 0 0.698039215686274 0  " in="shadowComposite" />
    </filter>
    <g id="widget4">
      <path d="M 416.5 212.023913988196  C 411.7 203.899331685044  404.5 199.024582303152  404.5 190.9  C 404.5 186.665714285714  406.9 179.5  416.5 179.5  C 426.1 179.5  428.5 186.665714285714  428.5 190.9  C 428.5 199.024582303152  421.3 203.899331685044  416.5 212.023913988196  Z " fill-rule="nonzero" fill="#d93500" stroke="none" />
      <path d="M 416.5 213  C 411.5 204.5  404 199.4  404 190.9  C 404 186.48  406.5 179  416.5 179  C 426.5 179  429 186.48  429 190.9  C 429 199.4  421.5 204.5  416.5 213  Z M 416.5 211.047827976392  C 421.1 203.298663370088  428 198.649164606305  428 190.9  C 428 186.851428571429  425.7 180  416.5 180  C 407.3 180  405 186.851428571429  405 190.9  C 405 198.649164606305  411.9 203.298663370088  416.5 211.047827976392  Z " fill-rule="nonzero" fill="#ffffff" stroke="none" />
    </g>
  </defs>
  <g transform="matrix(1 0 0 1 -400 -175 )">
    <use xlink:href="#widget4" filter="url(#filter3)" />
    <use xlink:href="#widget4" />
  </g>
</svg>